<svg id="Layer_1" data-name="Layer 1" xmlns="http://www.w3.org/2000/svg" xmlns:xlink="http://www.w3.org/1999/xlink" viewBox="0 0 512 512"><defs><style>.cls-1{fill:url(#linear-gradient);}.cls-2{fill:url(#linear-gradient-2);}.cls-3{fill:url(#linear-gradient-3);}</style><linearGradient id="linear-gradient" x1="259.35" y1="236.05" x2="259.35" y2="446.57" gradientUnits="userSpaceOnUse"><stop offset="0" stop-color="#d69b2a"/><stop offset="1" stop-color="#fff327"/></linearGradient><linearGradient id="linear-gradient-2" x1="27.09" y1="484.91" x2="453.6" y2="58.4" gradientUnits="userSpaceOnUse"><stop offset="0" stop-color="#d69b2a"/><stop offset="0.2" stop-color="#dca72a"/><stop offset="0.57" stop-color="#eac729"/><stop offset="1" stop-color="#fff327"/></linearGradient><linearGradient id="linear-gradient-3" x1="256" y1="126.37" x2="256" y2="355.9" xlink:href="#linear-gradient-2"/></defs><title>favicon</title><circle cx="256" cy="256" r="233.08"/><path class="cls-1" d="M228.11,363.48c17.61,0,33.46,11.79,33.46,34.92s-17.81,35.12-33.46,35.12-33.46-13.25-33.46-35.12S210.5,363.48,228.11,363.48Zm0,61.63c9.3,0,20.55-6.31,20.55-26.71S235,372,228.11,372s-20.54,4.74-20.54,26.41S218.82,425.11,228.11,425.11Zm120.46-61.63c17.61,0,33.45,11.79,33.45,34.92s-17.8,35.12-33.45,35.12-33.46-13.25-33.46-35.12S331,363.48,348.57,363.48Zm0,61.63c9.29,0,20.54-6.31,20.54-26.71S355.42,372,348.57,372,328,376.73,328,398.4,339.27,425.11,348.57,425.11ZM271.11,364.4q11.94,0,11.94,11.44s.73,27,.73,35.51c0,6.63,3.81,9.91,7.14,10.72,4.34,1.05,11.94.35,19.23-.29.28,3.43-2.1,9.33-7.3,10.3-5.41,1-14.62.45-17.94-.82-8-3-11.4-6.94-12.38-16.24C272.08,410.77,271.55,370,271.11,364.4Zm-112,69.12c-6.3,0-17.92-2.4-22.41-9.88,1-1.82,2.78-4.32,7.53-2.18a50.16,50.16,0,0,0,14.84,3.47c11.1,1.05,19.55-8.72,6.76-18-5.87-4.28-20-9.29-24.72-17-5.44-8.81-5.23-26.46,17.21-26.46,11.8,0,20.07,5.37,24.23,9.8-2.17,2.72-3.33,3.7-6.95,2.25-9.89-4-12.72-3.56-14.87-3.63-9.76-.3-11.53,6.08-8.23,9.77,3.69,4.13,15.15,9.62,20.87,12.74C192.16,404.66,190.37,433.52,159.09,433.52Z"/><path class="cls-2" d="M507.44,256c0,138.87-112.57,251.44-251.44,251.44S4.56,394.87,4.56,256,117.13,4.56,256,4.56,507.44,117.13,507.44,256ZM256,29.09C130.68,29.09,29.09,130.68,29.09,256S130.68,482.91,256,482.91,482.91,381.32,482.91,256,381.32,29.09,256,29.09Z"/><path class="cls-3" d="M182.31,203.2s0,7-2.3,10.9c-1.3,2.21-4.33,6.6-12.28,7.41-8.48.88-26.61.88-35.67-1.74-4.08-1.18-12.87-4.91-17.3-9.6-11-11.69-11.69-22.67-11.69-45.62v-33c0-7.91,0-16,7.74-24.25s22.08-6.19,32-6.19c23.07,0,29.66-.87,35.26-1.31,0,0,.16,7.42-1.48,10.9s-5,7.24-20.1,7.24h-26c-4.61-.26-7.41,3.23-7.24,8l.49,21.28h40.53q0,7.86-4.12,12.56t-11.69,4.71H123.5c0,16-.13,28.41,6.91,34.28,6.18,5.15,21.15,5.91,27.19,6.11A126.09,126.09,0,0,0,182.31,203.2ZM242.67,98.48c29.66,0,56.35,21,56.35,62.28s-30,62.63-56.35,62.63-56.34-23.64-56.34-62.63S213,98.48,242.67,98.48Zm0,109.9c15.65,0,34.6-11.25,34.6-47.62s-23.06-47.1-34.6-47.1-34.6,8.46-34.6,47.1S227,208.38,242.67,208.38Zm166.26,13.37a24,24,0,0,1-9.39.87c-2.53-.24-10.54-2.7-13.67-10.12L376,186.16H329.19l-9.88,26.34c-2.81,7.42-11.15,9.88-13.68,10.12a24,24,0,0,1-9.39-.87c.33-1.05,43.56-112.67,44.9-115.75.9-2.1,3.87-6.9,11.45-6.9S362.64,103,364,106C365.05,108.15,408.6,220.7,408.93,221.75Zm-39.21-52.86-17.13-42.35-17.14,42.35ZM227.06,239.2c24.53,0,46.61,16.42,46.61,48.65s-24.8,48.92-46.61,48.92-46.61-18.47-46.61-48.92S202.53,239.2,227.06,239.2Zm0,85.85c12.95,0,28.62-8.79,28.62-37.2s-19.08-36.8-28.62-36.8-28.62,6.61-28.62,36.8S214.12,325.05,227.06,325.05Zm-77.4-30.87c-9.75,0-13.83-7.56-13.08-13.49h18.8c8.38,0,17,1.66,19.06,14,.68,4.16,1,23.25-1.75,29.37-2.36,5.28-8.25,12.65-30.25,12.65-23,0-36.6-13.28-42.73-27.66a53.59,53.59,0,0,1-3.88-21.12c0-15.61,4.84-26.92,14.31-36.39,4.23-4.23,14.1-12.26,32.3-12.26,9.06,0,19.21,2,26.09,10.56-2.57,3.6-7.57,5.66-11,4.36a39.2,39.2,0,0,0-15.6-3c-8.66,0-16.28,5.79-19.15,8.65-9.61,9.61-10.15,21.79-10.15,28.14a41.31,41.31,0,0,0,3.61,16.56c5.25,12.06,15.47,20.24,26.17,20.44,13.14.25,16.75-4.38,17.91-9.06.69-2.72.48-12.88,0-16.35s-1.36-5.39-4.56-5.39Zm128-53.7q16.62,0,16.62,15.94s1,37.55,1,49.47c0,9.22,5.29,13.79,9.94,14.92,6.05,1.47,16.63.49,26.78-.39.4,4.76-2.91,13-10.16,14.35-7.53,1.4-20.36.61-25-1.15C285.73,329.4,281,324,279.59,311,279,305.07,278.23,248.31,277.62,240.48Zm90.86-1.66c26.86.68,47.69,11.62,47.69,49.24,0,36.38-18.27,46.72-40.4,48.54-6.83.56-17.72,1.36-27.26-.68-10.74-2.31-11.58-6.14-11.51-25.9l.27-47.08c-.28-17.65.94-22.08,9.8-23.44C351.37,238.84,359.41,238.59,368.48,238.82ZM375.84,323c16.6-1.8,23.16-18.22,23.16-35.43,0-17.76-4.83-32.85-25.89-35.49a69.8,69.8,0,0,0-13.63,0c-5.38.47-5.45,3.41-5.38,6.48v56.26c-.07,6.13,2.63,7.66,6.75,8.18A81.52,81.52,0,0,0,375.84,323Z"/></svg>