<?xml version="1.0" standalone="no"?>
<!DOCTYPE svg PUBLIC "-//W3C//DTD SVG 20010904//EN"
 "http://www.w3.org/TR/2001/REC-SVG-20010904/DTD/svg10.dtd">
<svg version="1.0" xmlns="http://www.w3.org/2000/svg"
 width="700.000000pt" height="700.000000pt" viewBox="0 0 700.000000 700.000000"
 preserveAspectRatio="xMidYMid meet">
<metadata>
Created by potrace 1.14, written by Peter Selinger 2001-2017
</metadata>
<g transform="translate(0.000000,700.000000) scale(0.100000,-0.100000)"
fill="#000000" stroke="none">
<path d="M3290 6929 c-364 -22 -698 -95 -1035 -226 -1045 -405 -1829 -1298
-2095 -2386 -70 -286 -95 -497 -95 -817 0 -326 27 -548 100 -840 242 -965 903
-1788 1792 -2234 628 -314 1340 -430 2033 -330 1019 147 1915 741 2452 1626
450 743 599 1631 417 2493 -256 1217 -1172 2212 -2369 2574 -261 79 -524 124
-818 141 -194 11 -200 11 -382 -1z m665 -359 c1268 -195 2270 -1115 2565
-2355 61 -256 74 -380 74 -715 0 -353 -13 -468 -89 -765 -231 -910 -865 -1667
-1724 -2059 -373 -170 -764 -260 -1191 -273 -1071 -33 -2079 490 -2677 1390
-94 142 -209 358 -277 520 -357 851 -303 1864 141 2672 476 865 1341 1462
2303 1589 180 24 180 24 465 21 215 -2 298 -7 410 -25z"/>
<path d="M3222 5650 c-177 -25 -301 -88 -432 -219 -109 -110 -161 -198 -206
-346 -22 -74 -27 -116 -32 -238 -5 -156 3 -222 40 -337 41 -128 103 -229 200
-328 152 -155 331 -234 528 -234 281 0 542 166 670 426 65 132 90 229 97 386
19 451 -208 788 -591 875 -84 19 -199 25 -274 15z m212 -229 c155 -54 276
-198 328 -388 28 -103 31 -349 5 -463 -39 -174 -137 -313 -260 -371 -226 -105
-475 -22 -580 194 -54 111 -68 182 -74 362 -6 190 13 306 68 419 101 208 322
314 513 247z"/>
<path d="M4755 5635 c-22 -8 -51 -27 -65 -44 -14 -16 -60 -121 -104 -233 -329
-847 -525 -1359 -528 -1374 -5 -30 83 -41 153 -21 92 27 131 70 179 195 22 59
57 149 76 200 l36 92 320 -2 320 -3 70 -185 c38 -102 80 -199 93 -215 12 -17
47 -44 76 -60 45 -25 65 -30 122 -29 37 0 71 4 77 10 9 9 -6 52 -330 889 -307
795 -291 760 -369 784 -49 14 -77 13 -126 -4z m179 -652 c60 -148 111 -274
113 -280 4 -10 -45 -13 -227 -13 -132 0 -230 4 -228 9 38 102 224 551 228 551
4 0 55 -120 114 -267z"/>
<path d="M2305 5630 c-55 -4 -215 -8 -356 -9 -339 -1 -382 -13 -471 -132 -67
-89 -70 -118 -66 -619 5 -486 6 -498 67 -618 59 -116 158 -199 298 -247 125
-44 440 -56 568 -23 79 20 145 113 145 206 l0 33 -72 -8 c-40 -4 -152 -7 -248
-7 -195 2 -300 22 -373 70 -73 48 -106 166 -107 377 l0 97 195 0 c154 0 204 3
233 15 71 30 114 91 127 178 l7 47 -281 0 -281 0 0 169 c0 155 2 170 21 195
l20 26 187 0 c430 1 505 30 514 195 4 69 13 65 -127 55z"/>
<path d="M4784 3731 c-90 -11 -131 -32 -152 -79 -15 -33 -17 -94 -17 -577 0
-592 0 -592 60 -631 88 -57 417 -67 609 -18 205 53 333 186 383 401 25 109 25
358 0 466 -25 106 -78 208 -143 272 -66 67 -189 128 -298 150 -93 19 -340 27
-442 16z m331 -181 c232 -34 337 -184 336 -485 0 -231 -71 -384 -209 -452 -52
-25 -69 -28 -183 -31 -143 -4 -192 8 -209 53 -6 16 -10 193 -10 449 0 340 3
426 14 441 23 31 139 42 261 25z"/>
<path d="M1795 3714 c-119 -26 -210 -76 -295 -163 -83 -84 -126 -156 -161
-271 -31 -98 -34 -308 -6 -410 47 -175 172 -333 318 -403 214 -102 538 -85
658 35 57 56 71 111 78 293 7 173 -7 241 -58 299 -48 55 -97 66 -291 66 l-168
0 0 -34 c0 -37 31 -89 73 -120 22 -16 48 -21 122 -26 52 -3 99 -10 106 -17 17
-17 28 -87 29 -183 0 -147 -42 -200 -174 -219 -163 -23 -295 44 -397 202 -105
162 -116 399 -28 575 36 74 120 154 196 190 82 38 203 43 307 12 48 -15 86
-20 108 -16 44 8 93 48 85 69 -10 27 -98 85 -162 107 -81 29 -244 36 -340 14z"/>
<path d="M2960 3714 c-177 -38 -342 -166 -418 -325 -118 -248 -90 -546 71
-744 154 -190 398 -280 621 -231 188 42 354 170 434 336 138 285 71 662 -150
840 -144 116 -366 166 -558 124z m266 -175 c73 -28 166 -115 205 -191 46 -91
62 -168 61 -294 0 -124 -17 -208 -59 -294 -128 -263 -515 -277 -651 -22 -49
91 -66 177 -65 327 0 113 3 141 27 212 75 231 275 339 482 262z"/>
<path d="M3802 3433 c14 -522 25 -735 42 -788 28 -91 90 -153 196 -196 44 -17
82 -23 190 -27 157 -5 204 4 249 50 28 28 71 131 60 142 -2 2 -51 -1 -109 -6
-124 -11 -249 -4 -287 16 -39 20 -69 54 -88 99 -13 32 -17 109 -24 435 -9 418
-12 443 -59 496 -25 28 -92 56 -137 56 l-40 0 7 -277z"/>
<path d="M2063 2021 c-58 -15 -108 -47 -138 -90 -27 -39 -30 -50 -30 -119 1
-133 53 -196 253 -305 176 -96 231 -162 198 -241 -33 -78 -151 -97 -312 -50
-49 15 -96 28 -106 31 -9 3 -26 -5 -39 -18 l-22 -22 39 -37 c59 -55 139 -82
256 -88 130 -6 214 18 286 83 66 60 86 111 80 204 -9 124 -60 184 -238 281
-152 83 -197 115 -216 152 -12 23 -13 36 -5 54 30 66 140 78 279 29 88 -31
133 -28 140 7 4 21 -82 80 -159 110 -59 22 -210 33 -266 19z"/>
<path d="M3003 2015 c-81 -22 -151 -62 -208 -119 -122 -122 -165 -328 -104
-503 95 -276 412 -396 661 -250 54 31 139 120 166 173 75 148 70 367 -11 506
-93 160 -314 244 -504 193z m226 -131 c63 -32 122 -101 148 -176 27 -79 25
-263 -5 -338 -47 -119 -136 -181 -257 -181 -118 0 -194 51 -247 167 -20 44
-23 64 -23 189 0 130 2 144 26 196 71 150 222 210 358 143z"/>
<path d="M4648 2015 c-207 -57 -338 -237 -338 -464 0 -203 138 -392 328 -451
163 -51 344 -2 461 125 160 174 162 487 3 666 -99 111 -301 166 -454 124z
m217 -126 c99 -47 167 -157 180 -295 23 -229 -96 -404 -274 -405 -163 -1 -257
92 -282 279 -13 96 -1 207 30 276 61 138 219 205 346 145z"/>
<path d="M3710 1934 c1 -212 20 -636 30 -674 14 -53 68 -112 128 -141 41 -21
62 -24 169 -24 116 0 123 1 148 25 26 23 55 77 55 99 0 6 -46 8 -122 5 -140
-6 -175 4 -214 63 -21 31 -22 49 -29 328 -6 242 -10 301 -24 327 -20 40 -56
65 -103 74 l-38 6 0 -88z"/>
</g>
</svg>
