<?xml version="1.0" standalone="no"?>
<!DOCTYPE svg PUBLIC "-//W3C//DTD SVG 20010904//EN"
 "http://www.w3.org/TR/2001/REC-SVG-20010904/DTD/svg10.dtd">
<svg version="1.0" xmlns="http://www.w3.org/2000/svg"
 width="512.000000pt" height="512.000000pt" viewBox="0 0 512.000000 512.000000"
 preserveAspectRatio="xMidYMid meet">
<metadata>
Created by potrace 1.11, written by Peter Selinger 2001-2013
</metadata>
<g transform="translate(0.000000,512.000000) scale(0.100000,-0.100000)"
fill="#000000" stroke="none">
<path d="M2409 5066 c-2 -2 -40 -6 -84 -10 -88 -7 -125 -12 -201 -27 -28 -5
-64 -12 -80 -15 -56 -10 -180 -43 -271 -74 -279 -92 -566 -249 -798 -437 -89
-73 -279 -261 -340 -338 -22 -27 -48 -59 -58 -70 -32 -35 -183 -268 -225 -345
-151 -282 -243 -577 -286 -910 -13 -105 -15 -483 -2 -565 3 -22 9 -56 11 -75
18 -119 29 -172 54 -273 142 -547 470 -1042 916 -1379 244 -185 622 -371 860
-424 6 -1 37 -9 70 -17 53 -14 172 -36 275 -51 199 -29 500 -23 720 15 163 28
175 30 294 65 313 89 630 255 886 461 96 77 276 253 335 328 22 28 42 52 45
55 13 12 100 129 136 185 232 352 371 756 410 1190 6 74 6 319 0 395 -28 329
-118 648 -262 932 -140 279 -307 500 -545 723 -325 305 -805 546 -1239 621
-25 4 -47 8 -50 9 -3 1 -32 5 -65 9 -33 4 -71 10 -85 13 -30 5 -416 14 -421 9z
m426 -239 c11 -2 41 -7 66 -11 335 -49 680 -184 954 -374 143 -99 208 -154
346 -293 238 -239 425 -545 534 -871 24 -73 46 -144 49 -158 2 -14 11 -54 20
-90 8 -36 18 -90 21 -120 4 -30 9 -58 10 -61 16 -24 23 -398 11 -501 -3 -27
-9 -72 -12 -100 -11 -95 -53 -282 -89 -393 -266 -819 -958 -1417 -1805 -1559
-246 -41 -539 -39 -780 5 -386 71 -745 239 -1060 495 -43 35 -244 236 -285
285 -148 176 -314 455 -380 639 -9 25 -25 70 -36 100 -101 278 -147 722 -104
1005 2 17 7 53 11 80 15 128 78 352 139 505 233 574 713 1051 1275 1267 36 14
74 29 85 33 51 22 222 70 300 85 174 33 288 42 495 40 118 -2 224 -5 235 -8z"/>
<path d="M2290 4109 c-95 -24 -172 -69 -245 -144 -117 -118 -167 -242 -171
-430 -4 -146 10 -218 68 -334 108 -221 358 -358 578 -317 201 37 374 187 438
381 65 194 45 444 -49 600 -125 210 -372 306 -619 244z m257 -164 c67 -30 144
-108 176 -177 42 -91 52 -145 51 -278 -1 -108 -5 -136 -28 -205 -53 -156 -151
-241 -289 -252 -229 -18 -365 156 -365 467 0 183 44 310 138 392 48 43 69 54
140 73 59 16 112 10 177 -20z"/>
<path d="M3501 4119 c-18 -4 -44 -18 -57 -31 -30 -29 -483 -1183 -470 -1196
14 -13 112 -5 148 12 50 24 64 48 124 206 l52 135 233 3 234 2 54 -142 c29
-79 60 -151 69 -161 41 -47 129 -74 188 -58 21 6 19 13 -51 196 -40 105 -78
201 -83 215 -6 14 -45 113 -86 220 -173 450 -216 554 -234 572 -24 25 -77 36
-121 27z m117 -489 c39 -96 72 -181 74 -189 2 -12 -24 -15 -159 -15 -90 -1
-163 3 -163 7 0 6 67 174 158 396 4 11 7 10 12 -5 4 -10 39 -98 78 -194z"/>
<path d="M1767 4114 c-3 -4 -127 -7 -275 -9 -221 -3 -275 -6 -308 -20 -75 -31
-125 -98 -141 -191 -9 -50 -9 -580 0 -644 27 -192 139 -308 331 -345 101 -20
330 -15 373 8 43 23 72 67 79 122 l7 46 -64 -7 c-35 -4 -107 -7 -160 -7 -226
2 -317 38 -347 141 -14 47 -26 251 -14 253 4 1 70 2 147 3 154 3 187 13 224
64 11 16 23 48 27 70 l6 42 -203 2 -204 3 -3 122 c-3 112 -1 124 17 142 12 12
33 21 49 21 360 0 421 8 457 64 28 43 30 147 2 120z"/>
<path d="M2268 2724 c-2 -1 -26 -5 -55 -8 -190 -21 -351 -170 -391 -361 -17
-78 -9 -220 16 -288 121 -334 521 -429 768 -183 94 95 137 208 137 358 -1 95
-17 165 -55 242 -57 114 -177 202 -303 225 -85 15 -114 19 -117 15z m127 -158
c109 -64 163 -174 166 -335 3 -222 -109 -364 -286 -364 -138 0 -241 87 -270
228 -13 64 -12 211 2 265 29 114 104 201 197 230 53 16 141 5 191 -24z"/>
<path d="M3520 2724 c-8 -1 -32 -5 -53 -9 -48 -8 -75 -37 -83 -92 -4 -25 -7
-207 -7 -406 -1 -437 -2 -434 108 -464 43 -12 291 -10 353 3 181 38 283 142
319 324 18 95 10 279 -16 361 -45 140 -135 223 -288 265 -51 14 -287 27 -333
18z m249 -140 c137 -23 215 -132 224 -309 7 -143 -28 -260 -99 -329 -50 -48
-103 -64 -212 -62 -142 2 -132 -25 -132 362 0 247 3 325 13 331 30 18 124 22
206 7z"/>
<path d="M1307 2709 c-161 -39 -296 -182 -332 -354 -18 -87 -11 -216 15 -295
70 -211 241 -322 477 -314 140 5 227 45 264 121 20 42 23 62 23 182 0 120 -2
141 -21 177 -34 64 -72 78 -232 82 l-134 3 6 -37 c4 -23 18 -50 36 -68 26 -25
39 -30 105 -35 41 -4 78 -10 83 -15 4 -4 10 -52 11 -107 3 -79 1 -105 -12
-124 -25 -39 -73 -58 -146 -58 -97 -1 -165 36 -236 128 -100 129 -104 357 -9
481 40 53 112 100 173 115 48 11 65 11 131 -4 118 -27 129 -27 157 -4 16 15
23 28 19 39 -9 22 -72 63 -125 81 -49 16 -196 20 -253 6z"/>
<path d="M2785 2569 c3 -79 7 -239 9 -354 7 -313 24 -364 141 -423 65 -32 198
-45 290 -28 36 7 79 47 94 89 21 56 18 59 -56 52 -195 -18 -269 6 -293 94 -5
20 -12 164 -15 321 -5 244 -8 288 -23 314 -24 40 -60 64 -109 72 l-42 6 4
-143z"/>
<path d="M1496 1465 c-94 -33 -129 -117 -95 -222 13 -41 83 -103 162 -143 131
-68 178 -119 158 -173 -24 -63 -111 -77 -239 -38 -39 11 -77 18 -85 15 -44
-17 -16 -61 61 -96 56 -25 75 -29 149 -30 189 -1 302 133 236 283 -25 56 -55
82 -175 148 -111 62 -148 93 -148 126 0 56 86 72 199 35 54 -17 78 -21 90 -13
26 16 19 35 -25 65 -78 52 -208 72 -288 43z"/>
<path d="M2195 1466 c-147 -46 -232 -156 -241 -307 -12 -207 110 -353 320
-383 34 -5 119 15 166 39 88 44 156 135 175 230 7 37 7 141 0 176 -8 42 -35
101 -61 136 -73 97 -239 147 -359 109z m193 -110 c22 -15 52 -50 68 -79 26
-48 29 -61 29 -152 0 -88 -3 -107 -26 -150 -77 -152 -283 -147 -349 8 -31 72
-33 212 -3 277 23 52 65 97 108 117 47 21 127 12 173 -21z"/>
<path d="M3395 1466 c-149 -47 -235 -169 -237 -335 -3 -195 148 -352 337 -352
184 0 323 140 331 332 6 159 -57 275 -184 335 -64 30 -184 40 -247 20z m170
-95 c83 -38 129 -123 129 -241 0 -154 -68 -253 -182 -265 -82 -9 -154 32 -194
109 -32 60 -36 216 -7 283 11 27 30 59 42 72 30 32 94 61 137 61 19 0 53 -9
75 -19z"/>
<path d="M2716 1454 c-3 -9 -4 -19 -2 -22 2 -4 7 -115 10 -247 4 -132 11 -256
16 -275 14 -53 75 -104 138 -117 47 -10 158 -6 180 6 22 12 52 60 52 83 0 11
-21 13 -95 10 -153 -6 -167 11 -171 208 -5 320 -3 301 -39 337 -36 36 -79 44
-89 17z"/>
</g>
</svg>
