<svg id="Layer_1" data-name="Layer 1" xmlns="http://www.w3.org/2000/svg" xmlns:xlink="http://www.w3.org/1999/xlink" viewBox="0 0 154 48"><defs><style>.cls-1{fill:url(#linear-gradient);}.cls-2{fill:url(#linear-gradient-2);}.cls-3{fill:#fff;}</style><linearGradient id="linear-gradient" x1="75.66" y1="17.71" x2="75.66" y2="33.18" gradientUnits="userSpaceOnUse"><stop offset="0" stop-color="#d69b2a"/><stop offset="0.2" stop-color="#dca72a"/><stop offset="0.57" stop-color="#eac729"/><stop offset="1" stop-color="#fff327"/></linearGradient><linearGradient id="linear-gradient-2" x1="52.59" y1="47.07" x2="98.27" y2="1.39" xlink:href="#linear-gradient"/></defs><title>Artboard 16</title><path class="cls-1" d="M69.65,22.8a2.15,2.15,0,0,1-.19.89,1.2,1.2,0,0,1-1,.61,10.25,10.25,0,0,1-2.91-.14,3.68,3.68,0,0,1-1.41-.79c-.9-.95-1-1.85-1-3.72V17a2.52,2.52,0,0,1,.63-2c.64-.67,1.8-.51,2.61-.51,1.88,0,2.41-.07,2.87-.1a2.81,2.81,0,0,1-.12.89c-.13.28-.4.59-1.64.59H65.42a.56.56,0,0,0-.59.65l0,1.74h3.3a1.53,1.53,0,0,1-.33,1,1.19,1.19,0,0,1-1,.38h-2c0,1.31,0,2.32.56,2.8a4.49,4.49,0,0,0,2.22.5A10.06,10.06,0,0,0,69.65,22.8Zm4.92-8.53c2.42,0,4.6,1.71,4.6,5.07a4.77,4.77,0,0,1-4.6,5.11A4.89,4.89,0,0,1,70,19.34C70,16.17,72.15,14.27,74.57,14.27Zm0,9c1.28,0,2.82-.92,2.82-3.89s-1.88-3.84-2.82-3.84-2.82.69-2.82,3.84S73.3,23.23,74.57,23.23Zm13.56,1.09a2.07,2.07,0,0,1-.77.07,1.46,1.46,0,0,1-1.11-.83l-.81-2.14H81.63l-.81,2.14a1.44,1.44,0,0,1-1.12.83,2,2,0,0,1-.76-.07c0-.09,3.55-9.19,3.66-9.44a.94.94,0,0,1,.93-.56.92.92,0,0,1,.94.56C84.55,15.06,88.1,24.23,88.13,24.32ZM84.93,20l-1.4-3.46L82.14,20ZM73.3,25.74a3.69,3.69,0,0,1,3.8,4,3.83,3.83,0,0,1-3.8,4,3.92,3.92,0,0,1-3.8-4A3.77,3.77,0,0,1,73.3,25.74Zm0,7c1,0,2.33-.72,2.33-3s-1.55-3-2.33-3-2.33.54-2.33,3S72.24,32.74,73.3,32.74ZM67,30.22a1,1,0,0,1-1.07-1.1h1.53c.69,0,1.39.14,1.56,1.14a7.43,7.43,0,0,1-.14,2.4c-.2.43-.68,1-2.47,1a3.61,3.61,0,0,1-3.48-2.26,4.19,4.19,0,0,1-.32-1.72,3.88,3.88,0,0,1,1.17-3,3.53,3.53,0,0,1,2.63-1,2.59,2.59,0,0,1,2.13.86,1.37,1.37,0,0,1-.32.32.62.62,0,0,1-.58,0,3.16,3.16,0,0,0-1.27-.24,2.42,2.42,0,0,0-1.56.7,3.15,3.15,0,0,0-.83,2.3,3.4,3.4,0,0,0,.3,1.35,2.52,2.52,0,0,0,2.13,1.66c1.07,0,1.37-.35,1.46-.73a6,6,0,0,0,0-1.34c0-.28-.11-.44-.37-.44Zm10.43-4.38c.9,0,1.36.44,1.36,1.3,0,0,.08,3.07.08,4a1.14,1.14,0,0,0,.81,1.21,8.47,8.47,0,0,0,2.18,0A1.13,1.13,0,0,1,81,33.53a5.11,5.11,0,0,1-2-.09,1.89,1.89,0,0,1-1.41-1.85C77.53,31.11,77.47,26.48,77.42,25.84Zm7.41-.13c2.19.05,3.89.95,3.89,4s-1.49,3.81-3.3,4a8,8,0,0,1-2.22,0c-.88-.19-.94-.5-.94-2.12l0-3.83c0-1.44.08-1.8.8-1.92A12.26,12.26,0,0,1,84.83,25.71Zm.6,6.86c1.35-.15,1.89-1.49,1.89-2.89s-.4-2.68-2.11-2.89a5,5,0,0,0-1.11,0c-.44,0-.45.28-.44.53V31.9c0,.5.21.63.55.67A6.21,6.21,0,0,0,85.43,32.57Z"/><path class="cls-2" d="M75.66,5.33A18.67,18.67,0,1,1,57,24,18.66,18.66,0,0,1,75.66,5.33m0-1.83a20.5,20.5,0,0,0-8,39.39A20.47,20.47,0,0,0,90.15,38.5,20.56,20.56,0,0,0,94.55,32a20.58,20.58,0,0,0,0-16A20.48,20.48,0,0,0,75.66,3.5Z"/><path class="cls-3" d="M4.26,19.42A7.33,7.33,0,0,1,4,17.35a7.74,7.74,0,0,1,1-4.16c.64-1,1.87-1.54,3.69-1.54A3.77,3.77,0,0,1,12.81,15a20.59,20.59,0,0,1,.27,3.66v1.43H10.37V18.49a13.58,13.58,0,0,0-.23-3.1,2,2,0,0,0-.58-1.05,1.4,1.4,0,0,0-.89-.26,1.59,1.59,0,0,0-1.48.75,4.43,4.43,0,0,0-.45,2.23,4.32,4.32,0,0,0,.41,2.17,7.18,7.18,0,0,0,1,1.31c.4.42.63.65.67.71L10.48,23a9.79,9.79,0,0,1,3,6.93,9.54,9.54,0,0,1-1,4.78c-.64,1.1-1.87,1.65-3.68,1.65a3.88,3.88,0,0,1-4.15-2.88,14.44,14.44,0,0,1-.51-4.23V26.75H6.89v2.46a12.23,12.23,0,0,0,.38,3.68,1.42,1.42,0,0,0,1.43,1,1.81,1.81,0,0,0,1.44-.48A2.71,2.71,0,0,0,10.6,32q.06-1,.06-2.25A6.61,6.61,0,0,0,8.45,25L6.87,23.41A9.78,9.78,0,0,1,4.26,19.42Z"/><path class="cls-3" d="M16.91,18.5q0-4.11,1.48-5.64a4.49,4.49,0,0,1,3.39-1.21q3.22,0,4.14,2.66a13.61,13.61,0,0,1,.53,4.19V29.14a10.82,10.82,0,0,1-1.06,5.49,4,4,0,0,1-3.69,1.72A4,4,0,0,1,18,34.62a10.67,10.67,0,0,1-1.08-5.48Zm6.7-.16a10,10,0,0,0-.37-3.28,1.43,1.43,0,0,0-1.49-1,1.57,1.57,0,0,0-1.56,1,8.47,8.47,0,0,0-.44,3.25V29.17a12.37,12.37,0,0,0,.38,3.75,1.5,1.5,0,0,0,1.55,1,1.51,1.51,0,0,0,1.55-1,12.26,12.26,0,0,0,.38-3.73Z"/><path class="cls-3" d="M30.82,12h2.84V33.73h4.46v2.35h-7.3Z"/><path class="cls-3" d="M40.72,18.5c0-2.74.5-4.62,1.48-5.64a4.49,4.49,0,0,1,3.39-1.21q3.24,0,4.14,2.66a13.31,13.31,0,0,1,.53,4.19V29.14a10.94,10.94,0,0,1-1,5.49,4,4,0,0,1-3.7,1.72,4,4,0,0,1-3.71-1.73,10.67,10.67,0,0,1-1.08-5.48Zm6.71-.16a10.31,10.31,0,0,0-.37-3.28,1.45,1.45,0,0,0-1.5-1,1.57,1.57,0,0,0-1.56,1,8.68,8.68,0,0,0-.44,3.25V29.17A12,12,0,0,0,44,32.92a1.69,1.69,0,0,0,3.09,0,11.86,11.86,0,0,0,.39-3.73Z"/><path class="cls-3" d="M101.6,12h5.06a4.44,4.44,0,0,1,3.09.89,4.68,4.68,0,0,1,1.14,3c.06.59.08,1.5.08,2.74a8.8,8.8,0,0,1-.48,3.11,2.58,2.58,0,0,1-1.72,1.64,1.86,1.86,0,0,1,1.37.95,6.63,6.63,0,0,1,.65,2.55,50.38,50.38,0,0,1,.2,5.19,18.78,18.78,0,0,0,.22,4h-2.83a65.56,65.56,0,0,1-.22-8.13c0-1.73-.17-2.73-.5-3a2.38,2.38,0,0,0-1.54-.42l-1.68-.1V36.08H101.6Zm6.56,5.91c0-1.86-.16-2.93-.5-3.22a2.12,2.12,0,0,0-1.44-.44h-1.78v8.14h1.8a1.91,1.91,0,0,0,1.21-.31,2,2,0,0,0,.55-1.21,17.1,17.1,0,0,0,.16-2.8Z"/><path class="cls-3" d="M118,12h3.42l4,24.13h-2.67L122,31.47h-4.38L117,36.08h-2.7Zm0,17.22h3.7l-1.91-12.75h0Z"/><path class="cls-3" d="M134.77,12h2.79l-3.9,14V36.08h-2.83V26l-4.2-14h2.76l2.85,9.87h0Z"/><path class="cls-3" d="M142.59,12H146l4,24.13h-2.67l-.69-4.61h-4.37l-.63,4.61h-2.7Zm0,17.22h3.7l-1.91-12.75h0Z"/></svg>